<svg width="981" height="237" viewBox="0 0 981 237" fill="none" xmlns="http://www.w3.org/2000/svg">
<path d="M942.012 156.7C934.512 156.7 927.812 155.05 921.912 151.75C916.112 148.35 911.562 143.7 908.262 137.8C904.962 131.9 903.312 125.1 903.312 117.4C903.312 109.7 904.912 102.9 908.112 97C911.412 91.1 915.962 86.5 921.762 83.2C927.562 79.8 934.212 78.1 941.712 78.1C949.212 78.1 955.862 79.8 961.662 83.2C967.462 86.5 971.962 91.1 975.162 97C978.462 102.9 980.112 109.7 980.112 117.4C980.112 125.1 978.512 131.9 975.312 137.8C972.112 143.7 967.612 148.35 961.812 151.75C956.012 155.05 949.412 156.7 942.012 156.7ZM942.012 141.25C946.112 141.25 949.762 140.25 952.962 138.25C956.162 136.15 958.662 133.35 960.462 129.85C962.262 126.25 963.162 122.1 963.162 117.4C963.162 112.7 962.212 108.6 960.312 105.1C958.512 101.5 956.012 98.7 952.812 96.7C949.612 94.6 945.912 93.55 941.712 93.55C937.512 93.55 933.812 94.55 930.612 96.55C927.412 98.55 924.912 101.35 923.112 104.95C921.312 108.55 920.412 112.7 920.412 117.4C920.412 122.1 921.312 126.25 923.112 129.85C925.012 133.35 927.562 136.15 930.762 138.25C934.062 140.25 937.812 141.25 942.012 141.25Z" fill="white"/>
<path d="M877.062 154.9V79.9H893.712V154.9H877.062ZM885.462 65.65C882.762 65.65 880.412 64.7 878.412 62.8C876.512 60.8 875.562 58.45 875.562 55.75C875.562 53.05 876.512 50.75 878.412 48.85C880.412 46.95 882.762 46 885.462 46C888.162 46 890.462 46.95 892.362 48.85C894.362 50.75 895.362 53.05 895.362 55.75C895.362 58.45 894.362 60.8 892.362 62.8C890.462 64.7 888.162 65.65 885.462 65.65Z" fill="white"/>
<path d="M847.539 154.9L846.789 140.95V49.9H863.439V154.9H847.539ZM823.089 156.7C816.289 156.7 810.339 155.1 805.239 151.9C800.239 148.6 796.289 144 793.389 138.1C790.589 132.2 789.189 125.3 789.189 117.4C789.189 109.4 790.589 102.5 793.389 96.7C796.289 90.8 800.239 86.25 805.239 83.05C810.339 79.75 816.289 78.1 823.089 78.1C829.389 78.1 834.789 79.75 839.289 83.05C843.889 86.25 847.389 90.8 849.789 96.7C852.189 102.5 853.389 109.4 853.389 117.4C853.389 125.3 852.189 132.2 849.789 138.1C847.389 144 843.889 148.6 839.289 151.9C834.789 155.1 829.389 156.7 823.089 156.7ZM827.289 141.4C831.089 141.4 834.439 140.4 837.339 138.4C840.339 136.3 842.639 133.45 844.239 129.85C845.939 126.25 846.789 122.1 846.789 117.4C846.789 112.7 845.939 108.55 844.239 104.95C842.639 101.35 840.339 98.55 837.339 96.55C834.439 94.55 831.039 93.55 827.139 93.55C823.139 93.55 819.589 94.55 816.489 96.55C813.389 98.55 810.939 101.35 809.139 104.95C807.439 108.55 806.539 112.7 806.439 117.4C806.539 122.1 807.439 126.25 809.139 129.85C810.939 133.45 813.389 136.3 816.489 138.4C819.689 140.4 823.289 141.4 827.289 141.4Z" fill="white"/>
<path d="M764.97 154.9L764.07 141.1V79.9H780.72V154.9H764.97ZM713.07 118.3V79.9H729.87V118.3H713.07ZM729.87 118.3C729.87 124.2 730.57 128.8 731.97 132.1C733.37 135.4 735.27 137.7 737.67 139C740.17 140.3 743.02 140.95 746.22 140.95C751.92 141.05 756.32 139.2 759.42 135.4C762.52 131.6 764.07 126.15 764.07 119.05H770.37C770.37 126.95 769.17 133.75 766.77 139.45C764.47 145.05 761.17 149.35 756.87 152.35C752.67 155.25 747.57 156.7 741.57 156.7C735.67 156.7 730.57 155.5 726.27 153.1C722.07 150.7 718.82 146.95 716.52 141.85C714.22 136.75 713.07 130.2 713.07 122.2V118.3H729.87Z" fill="white"/>
<path d="M691.684 156.7C683.784 156.7 677.734 154.75 673.534 150.85C669.434 146.85 667.384 141.15 667.384 133.75V56.5H684.034V130.6C684.034 134.1 684.834 136.75 686.434 138.55C688.134 140.35 690.584 141.25 693.784 141.25C694.784 141.25 695.884 141.05 697.084 140.65C698.284 140.25 699.634 139.5 701.134 138.4L707.284 151.15C704.684 152.95 702.084 154.3 699.484 155.2C696.884 156.2 694.284 156.7 691.684 156.7ZM654.934 94.3V79.9H704.284V94.3H654.934Z" fill="white"/>
<path d="M613.931 156.7C608.431 156.7 603.381 156.05 598.781 154.75C594.281 153.45 590.281 151.65 586.781 149.35C583.381 147.05 580.531 144.5 578.231 141.7C576.031 138.8 574.481 135.8 573.581 132.7L590.681 127.45C591.981 131.15 594.531 134.4 598.331 137.2C602.131 140 606.831 141.45 612.431 141.55C618.931 141.55 624.081 140.2 627.881 137.5C631.681 134.8 633.581 131.25 633.581 126.85C633.581 122.85 631.981 119.6 628.781 117.1C625.581 114.5 621.281 112.5 615.881 111.1L602.981 107.8C598.081 106.5 593.631 104.6 589.631 102.1C585.731 99.6 582.631 96.45 580.331 92.65C578.131 88.85 577.031 84.35 577.031 79.15C577.031 69.35 580.231 61.75 586.631 56.35C593.031 50.85 602.181 48.1 614.081 48.1C620.781 48.1 626.631 49.15 631.631 51.25C636.731 53.25 640.931 56.05 644.231 59.65C647.531 63.15 649.981 67.15 651.581 71.65L634.781 77.05C633.281 73.05 630.681 69.75 626.981 67.15C623.281 64.55 618.681 63.25 613.181 63.25C607.481 63.25 602.981 64.6 599.681 67.3C596.481 70 594.881 73.75 594.881 78.55C594.881 82.45 596.131 85.5 598.631 87.7C601.231 89.8 604.731 91.4 609.131 92.5L622.031 95.65C631.431 97.95 638.731 101.9 643.931 107.5C649.131 113.1 651.731 119.3 651.731 126.1C651.731 132.1 650.281 137.4 647.381 142C644.481 146.6 640.181 150.2 634.481 152.8C628.881 155.4 622.031 156.7 613.931 156.7Z" fill="white"/>
<path d="M463.348 184.9V79.9H479.098L480.148 93.7V184.9H463.348ZM503.848 156.7C497.548 156.7 492.098 155.1 487.498 151.9C482.998 148.6 479.548 144 477.148 138.1C474.748 132.2 473.548 125.3 473.548 117.4C473.548 109.4 474.748 102.5 477.148 96.7C479.548 90.8 482.998 86.25 487.498 83.05C492.098 79.75 497.548 78.1 503.848 78.1C510.648 78.1 516.548 79.75 521.548 83.05C526.648 86.25 530.598 90.8 533.398 96.7C536.298 102.5 537.748 109.4 537.748 117.4C537.748 125.3 536.298 132.2 533.398 138.1C530.598 144 526.648 148.6 521.548 151.9C516.548 155.1 510.648 156.7 503.848 156.7ZM499.648 141.4C503.648 141.4 507.198 140.4 510.298 138.4C513.398 136.3 515.848 133.45 517.648 129.85C519.548 126.25 520.498 122.1 520.498 117.4C520.498 112.7 519.598 108.55 517.798 104.95C516.098 101.35 513.698 98.55 510.598 96.55C507.498 94.55 503.898 93.55 499.798 93.55C495.998 93.55 492.598 94.55 489.598 96.55C486.598 98.55 484.248 101.35 482.548 104.95C480.948 108.55 480.148 112.7 480.148 117.4C480.148 122.1 480.948 126.25 482.548 129.85C484.248 133.45 486.548 136.3 489.448 138.4C492.448 140.4 495.848 141.4 499.648 141.4Z" fill="white"/>
<path d="M432.148 154.9V79.9H448.798V154.9H432.148ZM440.548 65.65C437.848 65.65 435.498 64.7 433.498 62.8C431.598 60.8 430.648 58.45 430.648 55.75C430.648 53.05 431.598 50.75 433.498 48.85C435.498 46.95 437.848 46 440.548 46C443.248 46 445.548 46.95 447.448 48.85C449.448 50.75 450.448 53.05 450.448 55.75C450.448 58.45 449.448 60.8 447.448 62.8C445.548 64.7 443.248 65.65 440.548 65.65Z" fill="white"/>
<path d="M352.433 154.9V49.9H369.233V154.9H352.433ZM403.283 154.9V116.5H420.083V154.9H403.283ZM403.283 116.5C403.283 110.5 402.583 105.9 401.183 102.7C399.783 99.4 397.833 97.1 395.333 95.8C392.933 94.5 390.133 93.85 386.933 93.85C381.233 93.75 376.833 95.6 373.733 99.4C370.733 103.2 369.233 108.65 369.233 115.75H362.783C362.783 107.85 363.933 101.1 366.233 95.5C368.633 89.8 371.983 85.5 376.283 82.6C380.583 79.6 385.683 78.1 391.583 78.1C397.483 78.1 402.583 79.3 406.883 81.7C411.183 84.1 414.433 87.85 416.633 92.95C418.933 97.95 420.083 104.5 420.083 112.6V116.5H403.283Z" fill="white"/>
<path d="M304.38 156.7C298.88 156.7 293.83 156.05 289.23 154.75C284.73 153.45 280.73 151.65 277.23 149.35C273.83 147.05 270.98 144.5 268.68 141.7C266.48 138.8 264.93 135.8 264.03 132.7L281.13 127.45C282.43 131.15 284.98 134.4 288.78 137.2C292.58 140 297.28 141.45 302.88 141.55C309.38 141.55 314.53 140.2 318.33 137.5C322.13 134.8 324.03 131.25 324.03 126.85C324.03 122.85 322.43 119.6 319.23 117.1C316.03 114.5 311.73 112.5 306.33 111.1L293.43 107.8C288.53 106.5 284.08 104.6 280.08 102.1C276.18 99.6 273.08 96.45 270.78 92.65C268.58 88.85 267.48 84.35 267.48 79.15C267.48 69.35 270.68 61.75 277.08 56.35C283.48 50.85 292.63 48.1 304.53 48.1C311.23 48.1 317.08 49.15 322.08 51.25C327.18 53.25 331.38 56.05 334.68 59.65C337.98 63.15 340.43 67.15 342.03 71.65L325.23 77.05C323.73 73.05 321.13 69.75 317.43 67.15C313.73 64.55 309.13 63.25 303.63 63.25C297.93 63.25 293.43 64.6 290.13 67.3C286.93 70 285.33 73.75 285.33 78.55C285.33 82.45 286.58 85.5 289.08 87.7C291.68 89.8 295.18 91.4 299.58 92.5L312.48 95.65C321.88 97.95 329.18 101.9 334.38 107.5C339.58 113.1 342.18 119.3 342.18 126.1C342.18 132.1 340.73 137.4 337.83 142C334.93 146.6 330.63 150.2 324.93 152.8C319.33 155.4 312.48 156.7 304.38 156.7Z" fill="white"/>
<g filter="url(#filter0_d_6_145)">
<rect x="20.9" y="2.90002" width="195" height="195" rx="97.5" fill="#5BFF79" fill-opacity="0.5" shape-rendering="crispEdges"/>
</g>
<g filter="url(#filter1_d_6_145)">
<rect x="50.9" y="32.9" width="135" height="135" rx="67.5" fill="#5BFF79" fill-opacity="0.5" shape-rendering="crispEdges"/>
</g>
<g filter="url(#filter2_d_6_145)">
<rect x="80.9" y="61.9" width="76" height="76" rx="38" fill="#5BFF79" fill-opacity="0.5" shape-rendering="crispEdges"/>
</g>
<defs>
<filter id="filter0_d_6_145" x="2.47955e-05" y="2.47955e-05" width="236.8" height="236.8" filterUnits="userSpaceOnUse" color-interpolation-filters="sRGB">
<feFlood flood-opacity="0" result="BackgroundImageFix"/>
<feColorMatrix in="SourceAlpha" type="matrix" values="0 0 0 0 0 0 0 0 0 0 0 0 0 0 0 0 0 0 127 0" result="hardAlpha"/>
<feOffset dy="18"/>
<feGaussianBlur stdDeviation="10.45"/>
<feComposite in2="hardAlpha" operator="out"/>
<feColorMatrix type="matrix" values="0 0 0 0 0 0 0 0 0 0 0 0 0 0 0 0 0 0 0.25 0"/>
<feBlend mode="normal" in2="BackgroundImageFix" result="effect1_dropShadow_6_145"/>
<feBlend mode="normal" in="SourceGraphic" in2="effect1_dropShadow_6_145" result="shape"/>
</filter>
<filter id="filter1_d_6_145" x="30" y="30" width="176.8" height="176.8" filterUnits="userSpaceOnUse" color-interpolation-filters="sRGB">
<feFlood flood-opacity="0" result="BackgroundImageFix"/>
<feColorMatrix in="SourceAlpha" type="matrix" values="0 0 0 0 0 0 0 0 0 0 0 0 0 0 0 0 0 0 127 0" result="hardAlpha"/>
<feOffset dy="18"/>
<feGaussianBlur stdDeviation="10.45"/>
<feComposite in2="hardAlpha" operator="out"/>
<feColorMatrix type="matrix" values="0 0 0 0 0 0 0 0 0 0 0 0 0 0 0 0 0 0 0.25 0"/>
<feBlend mode="normal" in2="BackgroundImageFix" result="effect1_dropShadow_6_145"/>
<feBlend mode="normal" in="SourceGraphic" in2="effect1_dropShadow_6_145" result="shape"/>
</filter>
<filter id="filter2_d_6_145" x="60" y="59" width="117.8" height="117.8" filterUnits="userSpaceOnUse" color-interpolation-filters="sRGB">
<feFlood flood-opacity="0" result="BackgroundImageFix"/>
<feColorMatrix in="SourceAlpha" type="matrix" values="0 0 0 0 0 0 0 0 0 0 0 0 0 0 0 0 0 0 127 0" result="hardAlpha"/>
<feOffset dy="18"/>
<feGaussianBlur stdDeviation="10.45"/>
<feComposite in2="hardAlpha" operator="out"/>
<feColorMatrix type="matrix" values="0 0 0 0 0 0 0 0 0 0 0 0 0 0 0 0 0 0 0.25 0"/>
<feBlend mode="normal" in2="BackgroundImageFix" result="effect1_dropShadow_6_145"/>
<feBlend mode="normal" in="SourceGraphic" in2="effect1_dropShadow_6_145" result="shape"/>
</filter>
</defs>
</svg>
